<svg width="295" height="41" viewBox="0 0 295 41" fill="none" xmlns="http://www.w3.org/2000/svg">
<path d="M4.63364 23.3822V20.0486L17.9678 14.177V18.0125L8.83845 21.6775L8.96156 21.4786V21.9521L8.83845 21.7533L17.9678 25.4183V29.2537L4.63364 23.3822Z" fill="black"/>
<path d="M30.4212 9.16725L24.1709 32.3884H20.6953L26.9457 9.16725H30.4212Z" fill="black"/>
<path d="M46.4852 23.3822L33.1511 29.2537V25.4183L42.2804 21.7533L42.1573 21.9521V21.4786L42.2804 21.6775L33.1511 18.0125V14.177L46.4852 20.0486V23.3822Z" fill="black"/>
<path fill-rule="evenodd" clip-rule="evenodd" d="M48.3364 2.77795H2.77796V37.2246H48.3364V2.77795ZM2.22237 2.22236V37.7802H48.892V2.22236H2.22237Z" fill="#2979FF"/>
<path d="M0 0H5.00032V5.00032H0V0Z" fill="white"/>
<path fill-rule="evenodd" clip-rule="evenodd" d="M4.44473 0.555591H0.555591V4.44473H4.44473V0.555591ZM0 0V5.00032H5.00032V0H0Z" fill="#2979FF"/>
<path d="M46.114 0H51.1143V5.00032H46.114V0Z" fill="white"/>
<path fill-rule="evenodd" clip-rule="evenodd" d="M50.5588 0.555591H46.6696V4.44473H50.5588V0.555591ZM46.114 0V5.00032H51.1143V0H46.114Z" fill="#2979FF"/>
<path d="M46.114 35.0022H51.1143V40.0025H46.114V35.0022Z" fill="white"/>
<path fill-rule="evenodd" clip-rule="evenodd" d="M50.5588 35.5578H46.6696V39.4469H50.5588V35.5578ZM46.114 35.0022V40.0025H51.1143V35.0022H46.114Z" fill="#2979FF"/>
<path d="M0 35.0022H5.00032V40.0025H0V35.0022Z" fill="white"/>
<path fill-rule="evenodd" clip-rule="evenodd" d="M4.44473 35.5578H0.555591V39.4469H4.44473V35.5578ZM0 35.0022V40.0025H5.00032V35.0022H0Z" fill="#2979FF"/>
<path d="M69.0793 3.07974L65.9541 14.6903H64.453L67.5782 3.07974H69.0793Z" fill="black"/>
<path d="M74.1317 3.07974L71.0065 14.6903H69.5054L72.6306 3.07974H74.1317Z" fill="black"/>
<path d="M78.6088 13.2319V3.53431H84.916V5.00694H80.3655V7.63968H84.5892V9.11232H80.3655V11.7593H84.9539V13.2319H78.6088Z" fill="black"/>
<path d="M93.1291 5.95871L90.539 13.2319H88.6449L86.0548 5.95871H87.8825L89.5541 11.3615H89.6298L91.3061 5.95871H93.1291Z" fill="black"/>
<path d="M97.2309 16.1109C96.6153 16.1109 96.0866 16.0272 95.6446 15.8599C95.2027 15.6957 94.8475 15.4748 94.5792 15.197C94.3109 14.9192 94.1247 14.6114 94.0205 14.2736L95.5641 13.8995C95.6336 14.0416 95.7346 14.1821 95.8672 14.321C95.9998 14.463 96.1781 14.5798 96.4023 14.6714C96.6295 14.7661 96.9152 14.8134 97.2593 14.8134C97.7455 14.8134 98.1479 14.6951 98.4668 14.4583C98.7856 14.2247 98.945 13.8396 98.945 13.3029V11.925H98.8598C98.7714 12.1018 98.642 12.2833 98.4715 12.4695C98.3042 12.6558 98.0817 12.812 97.8039 12.9383C97.5292 13.0646 97.1836 13.1277 96.7669 13.1277C96.2081 13.1277 95.7015 12.9967 95.2469 12.7347C94.7955 12.4695 94.4356 12.0749 94.1673 11.5509C93.9021 11.0237 93.7695 10.364 93.7695 9.57163C93.7695 8.77296 93.9021 8.099 94.1673 7.54972C94.4356 6.99728 94.797 6.57901 95.2516 6.2949C95.7062 6.00764 96.2129 5.864 96.7716 5.864C97.1978 5.864 97.5482 5.93661 97.8228 6.08182C98.1006 6.22388 98.3216 6.39592 98.4857 6.59795C98.6499 6.79683 98.7746 6.98466 98.8598 7.16144H98.9545V5.95871H100.645V13.3503C100.645 13.9722 100.497 14.4867 100.2 14.8939C99.9031 15.3012 99.4975 15.6058 98.9829 15.8078C98.4684 16.0098 97.8844 16.1109 97.2309 16.1109ZM97.2451 11.7829C97.6081 11.7829 97.9175 11.6945 98.1732 11.5178C98.4289 11.341 98.623 11.0869 98.7556 10.7554C98.8882 10.424 98.9545 10.0262 98.9545 9.56216C98.9545 9.10442 98.8882 8.70352 98.7556 8.35943C98.6262 8.01534 98.4336 7.74859 98.1779 7.55919C97.9254 7.36662 97.6145 7.27034 97.2451 7.27034C96.8631 7.27034 96.5443 7.36978 96.2886 7.56866C96.0329 7.76753 95.8404 8.04059 95.7109 8.38784C95.5815 8.73193 95.5168 9.12336 95.5168 9.56216C95.5168 10.0073 95.5815 10.3971 95.7109 10.7317C95.8435 11.0632 96.0377 11.3221 96.2933 11.5083C96.5522 11.6914 96.8695 11.7829 97.2451 11.7829Z" fill="black"/>
<path d="M105.622 13.3739C104.892 13.3739 104.263 13.2224 103.732 12.9194C103.205 12.6132 102.799 12.1807 102.515 11.6219C102.231 11.06 102.089 10.3987 102.089 9.63792C102.089 8.88976 102.231 8.23316 102.515 7.6681C102.803 7.09988 103.204 6.65793 103.718 6.34225C104.233 6.02342 104.837 5.864 105.532 5.864C105.98 5.864 106.403 5.93661 106.801 6.08182C107.202 6.22388 107.555 6.44485 107.861 6.74474C108.171 7.04464 108.414 7.4266 108.591 7.89065C108.767 8.35154 108.856 8.90081 108.856 9.53848V10.0641H102.894V8.9087H107.213C107.209 8.5804 107.138 8.2884 107 8.0327C106.861 7.77385 106.666 7.57024 106.417 7.42187C106.171 7.2735 105.884 7.19932 105.555 7.19932C105.205 7.19932 104.897 7.28455 104.632 7.45501C104.367 7.62232 104.16 7.8433 104.012 8.11793C103.866 8.38942 103.792 8.68773 103.789 9.01288V10.0215C103.789 10.4445 103.866 10.8075 104.021 11.1105C104.176 11.4104 104.392 11.6409 104.67 11.8019C104.948 11.9597 105.273 12.0386 105.645 12.0386C105.895 12.0386 106.12 12.0039 106.322 11.9345C106.524 11.8619 106.7 11.7561 106.848 11.6172C106.996 11.4783 107.108 11.3063 107.184 11.1011L108.785 11.281C108.684 11.704 108.491 12.0734 108.207 12.389C107.926 12.7016 107.566 12.9446 107.127 13.1183C106.689 13.2887 106.187 13.3739 105.622 13.3739Z" fill="black"/>
<path d="M112.02 8.97026V13.2319H110.306V5.95871H111.944V7.19458H112.029C112.197 6.78736 112.463 6.46379 112.83 6.22388C113.199 5.98396 113.655 5.864 114.198 5.864C114.7 5.864 115.137 5.97134 115.51 6.18599C115.885 6.40065 116.176 6.7116 116.381 7.11882C116.589 7.52604 116.692 8.02008 116.689 8.60092V13.2319H114.975V8.86609C114.975 8.37995 114.848 7.99956 114.596 7.72492C114.346 7.45028 114.001 7.31296 113.559 7.31296C113.259 7.31296 112.992 7.37925 112.759 7.51184C112.528 7.64126 112.347 7.82909 112.214 8.07532C112.085 8.32155 112.02 8.61986 112.02 8.97026Z" fill="black"/>
<path d="M118.431 13.2319V5.95871H120.145V13.2319H118.431ZM119.293 4.92645C119.022 4.92645 118.788 4.83648 118.592 4.65654C118.397 4.47345 118.299 4.25405 118.299 3.99836C118.299 3.7395 118.397 3.52011 118.592 3.34017C118.788 3.15708 119.022 3.06553 119.293 3.06553C119.568 3.06553 119.801 3.15708 119.994 3.34017C120.19 3.52011 120.288 3.7395 120.288 3.99836C120.288 4.25405 120.19 4.47345 119.994 4.65654C119.801 4.83648 119.568 4.92645 119.293 4.92645Z" fill="black"/>
<path d="M121.908 13.2319V5.95871H123.622V13.2319H121.908ZM122.77 4.92645C122.498 4.92645 122.265 4.83648 122.069 4.65654C121.873 4.47345 121.776 4.25405 121.776 3.99836C121.776 3.7395 121.873 3.52011 122.069 3.34017C122.265 3.15708 122.498 3.06553 122.77 3.06553C123.045 3.06553 123.278 3.15708 123.471 3.34017C123.666 3.52011 123.764 3.7395 123.764 3.99836C123.764 4.25405 123.666 4.47345 123.471 4.65654C123.278 4.83648 123.045 4.92645 122.77 4.92645Z" fill="black"/>
<path d="M134.038 6.2002C133.994 5.78666 133.808 5.46467 133.48 5.23423C133.154 5.00379 132.731 4.88856 132.211 4.88856C131.844 4.88856 131.53 4.94381 131.268 5.05429C131.006 5.16478 130.806 5.31473 130.667 5.50413C130.528 5.69354 130.457 5.90978 130.454 6.15285C130.454 6.35488 130.5 6.53008 130.591 6.67845C130.686 6.82682 130.814 6.95309 130.975 7.05726C131.136 7.15828 131.314 7.24351 131.51 7.31296C131.706 7.38241 131.903 7.44081 132.102 7.48816L133.011 7.71545C133.377 7.80068 133.729 7.9159 134.067 8.06111C134.408 8.20632 134.712 8.38942 134.981 8.61039C135.252 8.83136 135.467 9.09811 135.625 9.41063C135.783 9.72315 135.861 10.0893 135.861 10.5092C135.861 11.0774 135.716 11.5777 135.426 12.0102C135.135 12.4395 134.716 12.7757 134.166 13.0188C133.62 13.2587 132.959 13.3787 132.182 13.3787C131.428 13.3787 130.773 13.2619 130.217 13.0283C129.665 12.7947 129.232 12.4538 128.92 12.0055C128.61 11.5572 128.443 11.0111 128.418 10.3671H130.146C130.171 10.7049 130.276 10.9859 130.459 11.21C130.642 11.4341 130.88 11.6014 131.174 11.7119C131.47 11.8224 131.802 11.8776 132.168 11.8776C132.55 11.8776 132.885 11.8208 133.172 11.7072C133.462 11.5904 133.69 11.4294 133.854 11.2242C134.018 11.0158 134.102 10.7728 134.105 10.495C134.102 10.2424 134.027 10.0341 133.882 9.86994C133.737 9.70263 133.533 9.56373 133.271 9.45325C133.012 9.3396 132.709 9.23859 132.362 9.1502L131.259 8.86609C130.46 8.6609 129.829 8.34996 129.365 7.93326C128.904 7.51341 128.673 6.95625 128.673 6.26176C128.673 5.69038 128.828 5.19004 129.138 4.76072C129.45 4.3314 129.875 3.99836 130.411 3.7616C130.948 3.52168 131.556 3.40173 132.234 3.40173C132.922 3.40173 133.525 3.52168 134.043 3.7616C134.564 3.99836 134.973 4.32824 135.27 4.75124C135.566 5.17109 135.719 5.65408 135.729 6.2002H134.038Z" fill="black"/>
<path d="M139.445 13.3787C138.984 13.3787 138.569 13.2966 138.199 13.1325C137.833 12.9651 137.543 12.7189 137.328 12.3938C137.117 12.0686 137.011 11.6677 137.011 11.191C137.011 10.7807 137.087 10.4413 137.238 10.173C137.39 9.90466 137.596 9.69 137.858 9.52901C138.12 9.36801 138.416 9.24648 138.744 9.1644C139.075 9.07917 139.418 9.01761 139.771 8.97973C140.198 8.93554 140.543 8.89608 140.808 8.86135C141.074 8.82347 141.266 8.76665 141.386 8.69089C141.509 8.61197 141.571 8.49043 141.571 8.32628V8.29787C141.571 7.94116 141.465 7.66494 141.254 7.46922C141.042 7.2735 140.737 7.17564 140.34 7.17564C139.92 7.17564 139.587 7.26719 139.341 7.45028C139.098 7.63337 138.933 7.84961 138.848 8.09899L137.248 7.87171C137.374 7.42976 137.582 7.06042 137.873 6.76368C138.163 6.46379 138.518 6.23966 138.938 6.09129C139.358 5.93977 139.822 5.864 140.33 5.864C140.681 5.864 141.029 5.90504 141.377 5.98712C141.724 6.06919 142.041 6.20494 142.328 6.39434C142.616 6.58059 142.846 6.83471 143.02 7.1567C143.197 7.47869 143.285 7.88118 143.285 8.36416V13.2319H141.637V12.2328H141.58C141.476 12.4348 141.329 12.6242 141.14 12.801C140.954 12.9746 140.719 13.1151 140.434 13.2224C140.153 13.3266 139.824 13.3787 139.445 13.3787ZM139.89 12.1191C140.234 12.1191 140.532 12.0513 140.785 11.9155C141.037 11.7766 141.231 11.5935 141.367 11.3662C141.506 11.139 141.576 10.8912 141.576 10.6228V9.76577C141.522 9.80996 141.43 9.851 141.301 9.88888C141.175 9.92676 141.033 9.95991 140.875 9.98832C140.717 10.0167 140.561 10.042 140.406 10.0641C140.251 10.0862 140.117 10.1051 140.003 10.1209C139.748 10.1556 139.519 10.2124 139.317 10.2914C139.115 10.3703 138.955 10.4808 138.839 10.6228C138.722 10.7617 138.663 10.9417 138.663 11.1626C138.663 11.4783 138.779 11.7166 139.009 11.8776C139.24 12.0386 139.533 12.1191 139.89 12.1191Z" fill="black"/>
<path d="M144.914 13.2319V12.1428L148.664 7.44081V7.37925H145.037V5.95871H150.762V7.12829L147.191 11.7498V11.8114H150.885V13.2319H144.914Z" fill="black"/>
<path d="M154.21 8.97026V13.2319H152.496V3.53431H154.172V7.19458H154.257C154.428 6.7842 154.692 6.46063 155.048 6.22388C155.408 5.98396 155.866 5.864 156.421 5.864C156.927 5.864 157.367 5.96976 157.743 6.18126C158.118 6.39276 158.409 6.70213 158.614 7.10935C158.822 7.51657 158.926 8.01376 158.926 8.60092V13.2319H157.212V8.86609C157.212 8.37679 157.086 7.9964 156.833 7.72492C156.584 7.45028 156.234 7.31296 155.782 7.31296C155.479 7.31296 155.208 7.37925 154.968 7.51184C154.731 7.64126 154.545 7.82909 154.409 8.07532C154.276 8.32155 154.21 8.61986 154.21 8.97026Z" fill="black"/>
<path d="M160.674 13.2319V5.95871H162.388V13.2319H160.674ZM161.535 4.92645C161.264 4.92645 161.03 4.83648 160.835 4.65654C160.639 4.47345 160.541 4.25405 160.541 3.99836C160.541 3.7395 160.639 3.52011 160.835 3.34017C161.03 3.15708 161.264 3.06553 161.535 3.06553C161.81 3.06553 162.044 3.15708 162.236 3.34017C162.432 3.52011 162.53 3.7395 162.53 3.99836C162.53 4.25405 162.432 4.47345 162.236 4.65654C162.044 4.83648 161.81 4.92645 161.535 4.92645Z" fill="black"/>
<path d="M165.864 8.97026V13.2319H164.15V5.95871H165.789V7.19458H165.874C166.041 6.78736 166.308 6.46379 166.674 6.22388C167.044 5.98396 167.5 5.864 168.043 5.864C168.545 5.864 168.982 5.97134 169.354 6.18599C169.73 6.40065 170.02 6.7116 170.226 7.11882C170.434 7.52604 170.537 8.02008 170.533 8.60092V13.2319H168.819V8.86609C168.819 8.37995 168.693 7.99956 168.44 7.72492C168.191 7.45028 167.845 7.31296 167.403 7.31296C167.104 7.31296 166.837 7.37925 166.603 7.51184C166.373 7.64126 166.191 7.82909 166.059 8.07532C165.929 8.32155 165.864 8.61986 165.864 8.97026Z" fill="black"/>
<path d="M69.0793 23.9033L65.9541 35.5139H64.453L67.5782 23.9033H69.0793Z" fill="black"/>
<path d="M74.1317 23.9033L71.0065 35.5139H69.5054L72.6306 23.9033H74.1317Z" fill="black"/>
<path d="M81.8949 34.0555H78.6088V24.3579H81.9612C82.9241 24.3579 83.7511 24.5521 84.4425 24.9403C85.1369 25.3255 85.6704 25.8795 86.0429 26.6024C86.4154 27.3253 86.6017 28.1902 86.6017 29.1972C86.6017 30.2074 86.4139 31.0755 86.0382 31.8016C85.6657 32.5276 85.1275 33.0848 84.4235 33.4731C83.7227 33.8614 82.8799 34.0555 81.8949 34.0555ZM80.3655 32.5355H81.8097C82.4853 32.5355 83.0487 32.4124 83.5002 32.1662C83.9516 31.9168 84.2909 31.5459 84.5182 31.0534C84.7455 30.5578 84.8592 29.9391 84.8592 29.1972C84.8592 28.4554 84.7455 27.8398 84.5182 27.3505C84.2909 26.8581 83.9547 26.4903 83.5096 26.2472C83.0677 26.001 82.5184 25.8779 81.8618 25.8779H80.3655V32.5355Z" fill="black"/>
<path d="M91.415 34.1976C90.6857 34.1976 90.056 34.046 89.5256 33.743C88.9985 33.4368 88.5928 33.0043 88.3087 32.4455C88.0246 31.8836 87.8825 31.2223 87.8825 30.4615C87.8825 29.7134 88.0246 29.0568 88.3087 28.4917C88.596 27.9235 88.9969 27.4815 89.5114 27.1659C90.026 26.847 90.6305 26.6876 91.325 26.6876C91.7733 26.6876 92.1963 26.7602 92.594 26.9054C92.9949 27.0475 93.3485 27.2685 93.6547 27.5683C93.9641 27.8682 94.2071 28.2502 94.3839 28.7143C94.5607 29.1751 94.6491 29.7244 94.6491 30.3621V30.8877H88.6875V29.7323H93.006C93.0028 29.404 92.9318 29.112 92.7929 28.8563C92.654 28.5975 92.4599 28.3938 92.2105 28.2455C91.9642 28.0971 91.677 28.0229 91.3487 28.0229C90.9983 28.0229 90.6905 28.1082 90.4253 28.2786C90.1602 28.4459 89.9534 28.6669 89.805 28.9415C89.6598 29.213 89.5856 29.5113 89.5825 29.8365V30.8451C89.5825 31.2681 89.6598 31.6311 89.8145 31.9342C89.9692 32.234 90.1854 32.4645 90.4632 32.6255C90.741 32.7833 91.0661 32.8622 91.4386 32.8622C91.688 32.8622 91.9137 32.8275 92.1158 32.7581C92.3178 32.6855 92.493 32.5797 92.6414 32.4408C92.7897 32.3019 92.9018 32.1299 92.9776 31.9247L94.578 32.1046C94.477 32.5276 94.2845 32.897 94.0004 33.2126C93.7194 33.5252 93.3595 33.7682 92.9207 33.9419C92.4819 34.1123 91.98 34.1976 91.415 34.1976Z" fill="black"/>
<path d="M101.848 28.7048L100.285 28.8752C100.241 28.7174 100.164 28.569 100.053 28.4301C99.9457 28.2912 99.8005 28.1792 99.6174 28.0939C99.4343 28.0087 99.2102 27.9661 98.945 27.9661C98.5883 27.9661 98.2884 28.0434 98.0454 28.1981C97.8054 28.3528 97.6871 28.5533 97.6902 28.7995C97.6871 29.011 97.7644 29.183 97.9222 29.3156C98.0832 29.4482 98.3484 29.5571 98.7177 29.6423L99.9584 29.9075C100.647 30.0559 101.158 30.2911 101.493 30.613C101.83 30.935 102.001 31.3565 102.004 31.8773C102.001 32.3351 101.867 32.7391 101.601 33.0895C101.339 33.4368 100.975 33.7083 100.508 33.904C100.04 34.0997 99.5038 34.1976 98.8977 34.1976C98.0075 34.1976 97.2909 34.0113 96.7479 33.6388C96.205 33.2632 95.8814 32.7407 95.7772 32.0715L97.4487 31.9105C97.5245 32.2388 97.6855 32.4866 97.9317 32.6539C98.1779 32.8212 98.4983 32.9049 98.8929 32.9049C99.3002 32.9049 99.6269 32.8212 99.8731 32.6539C100.123 32.4866 100.247 32.2798 100.247 32.0336C100.247 31.8252 100.167 31.6532 100.006 31.5175C99.8479 31.3817 99.6016 31.2775 99.267 31.2049L98.0264 30.9445C97.3288 30.7993 96.8126 30.5546 96.478 30.2106C96.1434 29.8633 95.9777 29.4245 95.9808 28.8942C95.9777 28.4459 96.0992 28.0576 96.3454 27.7293C96.5948 27.3979 96.9405 27.1422 97.3824 26.9622C97.8275 26.7792 98.3405 26.6876 98.9214 26.6876C99.7737 26.6876 100.444 26.8691 100.934 27.2322C101.426 27.5952 101.731 28.0861 101.848 28.7048Z" fill="black"/>
<path d="M103.417 34.0555V26.7823H105.132V34.0555H103.417ZM104.279 25.7501C104.008 25.7501 103.774 25.6601 103.578 25.4801C103.383 25.2971 103.285 25.0777 103.285 24.822C103.285 24.5631 103.383 24.3437 103.578 24.1638C103.774 23.9807 104.008 23.8891 104.279 23.8891C104.554 23.8891 104.787 23.9807 104.98 24.1638C105.176 24.3437 105.274 24.5631 105.274 24.822C105.274 25.0777 105.176 25.2971 104.98 25.4801C104.787 25.6601 104.554 25.7501 104.279 25.7501Z" fill="black"/>
<path d="M110.057 36.9345C109.442 36.9345 108.913 36.8508 108.471 36.6835C108.029 36.5194 107.674 36.2984 107.406 36.0206C107.137 35.7428 106.951 35.435 106.847 35.0972L108.39 34.7232C108.46 34.8652 108.561 35.0057 108.694 35.1446C108.826 35.2866 109.004 35.4034 109.229 35.495C109.456 35.5897 109.742 35.637 110.086 35.637C110.572 35.637 110.974 35.5187 111.293 35.2819C111.612 35.0483 111.771 34.6632 111.771 34.1265V32.7486H111.686C111.598 32.9254 111.468 33.1069 111.298 33.2931C111.131 33.4794 110.908 33.6356 110.63 33.7619C110.356 33.8882 110.01 33.9513 109.593 33.9513C109.034 33.9513 108.528 33.8203 108.073 33.5583C107.622 33.2931 107.262 32.8985 106.994 32.3745C106.728 31.8473 106.596 31.1876 106.596 30.3952C106.596 29.5966 106.728 28.9226 106.994 28.3733C107.262 27.8209 107.623 27.4026 108.078 27.1185C108.533 26.8312 109.039 26.6876 109.598 26.6876C110.024 26.6876 110.374 26.7602 110.649 26.9054C110.927 27.0475 111.148 27.2195 111.312 27.4216C111.476 27.6204 111.601 27.8083 111.686 27.985H111.781V26.7823H113.471V34.1739C113.471 34.7958 113.323 35.3103 113.026 35.7175C112.729 36.1248 112.324 36.4294 111.809 36.6314C111.295 36.8335 110.711 36.9345 110.057 36.9345ZM110.071 32.6065C110.434 32.6065 110.744 32.5182 111 32.3414C111.255 32.1646 111.449 31.9105 111.582 31.579C111.715 31.2476 111.781 30.8498 111.781 30.3858C111.781 29.928 111.715 29.5271 111.582 29.183C111.453 28.8389 111.26 28.5722 111.004 28.3828C110.752 28.1902 110.441 28.0939 110.071 28.0939C109.689 28.0939 109.371 28.1934 109.115 28.3923C108.859 28.5911 108.667 28.8642 108.537 29.2114C108.408 29.5555 108.343 29.947 108.343 30.3858C108.343 30.8309 108.408 31.2207 108.537 31.5553C108.67 31.8868 108.864 32.1457 109.12 32.3319C109.379 32.515 109.696 32.6065 110.071 32.6065Z" fill="black"/>
<path d="M116.942 29.7939V34.0555H115.228V26.7823H116.866V28.0182H116.952C117.119 27.611 117.386 27.2874 117.752 27.0475C118.121 26.8076 118.577 26.6876 119.12 26.6876C119.622 26.6876 120.059 26.7949 120.432 27.0096C120.808 27.2243 121.098 27.5352 121.303 27.9424C121.512 28.3496 121.614 28.8437 121.611 29.4245V34.0555H119.897V29.6897C119.897 29.2036 119.771 28.8232 119.518 28.5485C119.269 28.2739 118.923 28.1366 118.481 28.1366C118.181 28.1366 117.914 28.2029 117.681 28.3354C117.45 28.4649 117.269 28.6527 117.136 28.8989C117.007 29.1452 116.942 29.4435 116.942 29.7939Z" fill="black"/>
<path d="M126.573 34.1976C125.844 34.1976 125.214 34.046 124.684 33.743C124.157 33.4368 123.751 33.0043 123.467 32.4455C123.183 31.8836 123.041 31.2223 123.041 30.4615C123.041 29.7134 123.183 29.0568 123.467 28.4917C123.754 27.9235 124.155 27.4815 124.67 27.1659C125.184 26.847 125.789 26.6876 126.483 26.6876C126.932 26.6876 127.355 26.7602 127.752 26.9054C128.153 27.0475 128.507 27.2685 128.813 27.5683C129.123 27.8682 129.366 28.2502 129.542 28.7143C129.719 29.1751 129.808 29.7244 129.808 30.3621V30.8877H123.846V29.7323H128.164C128.161 29.404 128.09 29.112 127.951 28.8563C127.812 28.5975 127.618 28.3938 127.369 28.2455C127.123 28.0971 126.835 28.0229 126.507 28.0229C126.157 28.0229 125.849 28.1082 125.584 28.2786C125.319 28.4459 125.112 28.6669 124.963 28.9415C124.818 29.213 124.744 29.5113 124.741 29.8365V30.8451C124.741 31.2681 124.818 31.6311 124.973 31.9342C125.128 32.234 125.344 32.4645 125.622 32.6255C125.899 32.7833 126.225 32.8622 126.597 32.8622C126.846 32.8622 127.072 32.8275 127.274 32.7581C127.476 32.6855 127.651 32.5797 127.8 32.4408C127.948 32.3019 128.06 32.1299 128.136 31.9247L129.737 32.1046C129.635 32.5276 129.443 32.897 129.159 33.2126C128.878 33.5252 128.518 33.7682 128.079 33.9419C127.64 34.1123 127.138 34.1976 126.573 34.1976Z" fill="black"/>
<path d="M131.258 34.0555V26.7823H132.92V27.9945H132.995C133.128 27.5747 133.355 27.2511 133.677 27.0238C134.002 26.7934 134.373 26.6781 134.79 26.6781C134.885 26.6781 134.991 26.6829 135.107 26.6923C135.227 26.6987 135.327 26.7097 135.406 26.7255V28.3023C135.333 28.277 135.218 28.2549 135.06 28.236C134.905 28.2139 134.755 28.2029 134.61 28.2029C134.298 28.2029 134.017 28.2707 133.767 28.4065C133.521 28.5391 133.327 28.7237 133.185 28.9605C133.043 29.1972 132.972 29.4703 132.972 29.7797V34.0555H131.258Z" fill="black"/>
<path d="M142.75 34.1976C142.087 34.1976 141.517 34.0776 141.04 33.8377C140.564 33.5978 140.196 33.2742 139.937 32.867C139.681 32.4566 139.554 31.9941 139.554 31.4796C139.554 31.0913 139.633 30.7472 139.79 30.4473C139.951 30.1474 140.172 29.8696 140.453 29.6139C140.737 29.3582 141.066 29.1041 141.438 28.8516L143.157 27.682C143.41 27.5178 143.601 27.3442 143.73 27.1611C143.863 26.978 143.929 26.7634 143.929 26.5171C143.929 26.3088 143.841 26.1115 143.664 25.9253C143.49 25.739 143.25 25.6459 142.944 25.6459C142.739 25.6459 142.557 25.6948 142.399 25.7927C142.245 25.8874 142.123 26.0121 142.035 26.1667C141.95 26.3214 141.907 26.4856 141.907 26.6592C141.907 26.8707 141.965 27.0854 142.082 27.3032C142.202 27.521 142.357 27.7467 142.546 27.9803C142.739 28.2139 142.944 28.4617 143.162 28.7237L147.712 34.0555H145.856L142.077 29.7276C141.797 29.3993 141.525 29.0757 141.263 28.7569C141.004 28.438 140.791 28.1066 140.624 27.7625C140.46 27.4152 140.378 27.0396 140.378 26.6355C140.378 26.1778 140.483 25.769 140.695 25.4091C140.906 25.0461 141.201 24.7604 141.58 24.5521C141.962 24.3437 142.409 24.2395 142.92 24.2395C143.432 24.2395 143.871 24.3406 144.237 24.5426C144.603 24.7446 144.885 25.0129 145.084 25.3476C145.283 25.6822 145.383 26.0468 145.383 26.4414C145.383 26.8991 145.269 27.3095 145.042 27.6725C144.814 28.0324 144.499 28.3591 144.095 28.6527L142.134 30.0874C141.812 30.321 141.582 30.5578 141.443 30.7977C141.304 31.0345 141.235 31.2365 141.235 31.4038C141.235 31.6595 141.299 31.8915 141.429 32.0999C141.558 32.3082 141.74 32.4755 141.973 32.6018C142.21 32.7249 142.486 32.7865 142.802 32.7865C143.149 32.7865 143.492 32.7091 143.829 32.5545C144.167 32.3966 144.475 32.1725 144.753 31.8821C145.031 31.5916 145.252 31.2444 145.416 30.8403C145.58 30.4331 145.662 29.9817 145.662 29.4861H147.135C147.135 30.0985 147.067 30.632 146.931 31.0866C146.795 31.538 146.62 31.9199 146.405 32.2325C146.191 32.5418 145.963 32.7896 145.724 32.9759C145.648 33.0296 145.575 33.0832 145.506 33.1369C145.436 33.1905 145.364 33.2442 145.288 33.2979C144.947 33.6072 144.548 33.8345 144.09 33.9797C143.635 34.1249 143.189 34.1976 142.75 34.1976Z" fill="black"/>
<path d="M152.077 34.0555V24.3579H158.289V25.8305H153.834V28.4633H157.863V29.9359H153.834V34.0555H152.077Z" fill="black"/>
<path d="M159.71 34.0555V26.7823H161.372V27.9945H161.448C161.58 27.5747 161.808 27.2511 162.13 27.0238C162.455 26.7934 162.826 26.6781 163.242 26.6781C163.337 26.6781 163.443 26.6829 163.56 26.6923C163.68 26.6987 163.779 26.7097 163.858 26.7255V28.3023C163.785 28.277 163.67 28.2549 163.512 28.236C163.358 28.2139 163.208 28.2029 163.062 28.2029C162.75 28.2029 162.469 28.2707 162.22 28.4065C161.973 28.5391 161.779 28.7237 161.637 28.9605C161.495 29.1972 161.424 29.4703 161.424 29.7797V34.0555H159.71Z" fill="black"/>
<path d="M167.87 34.1976C167.16 34.1976 166.544 34.0413 166.023 33.7288C165.502 33.4163 165.098 32.979 164.811 32.4171C164.527 31.8552 164.385 31.1986 164.385 30.4473C164.385 29.696 164.527 29.0378 164.811 28.4728C165.098 27.9077 165.502 27.4689 166.023 27.1564C166.544 26.8439 167.16 26.6876 167.87 26.6876C168.58 26.6876 169.196 26.8439 169.717 27.1564C170.237 27.4689 170.64 27.9077 170.924 28.4728C171.211 29.0378 171.355 29.696 171.355 30.4473C171.355 31.1986 171.211 31.8552 170.924 32.4171C170.64 32.979 170.237 33.4163 169.717 33.7288C169.196 34.0413 168.58 34.1976 167.87 34.1976ZM167.879 32.8244C168.264 32.8244 168.586 32.7186 168.845 32.5071C169.104 32.2924 169.297 32.0052 169.423 31.6453C169.552 31.2854 169.617 30.8845 169.617 30.4426C169.617 29.9975 169.552 29.595 169.423 29.2351C169.297 28.8721 169.104 28.5832 168.845 28.3686C168.586 28.1539 168.264 28.0466 167.879 28.0466C167.485 28.0466 167.156 28.1539 166.894 28.3686C166.636 28.5832 166.441 28.8721 166.312 29.2351C166.186 29.595 166.123 29.9975 166.123 30.4426C166.123 30.8845 166.186 31.2854 166.312 31.6453C166.441 32.0052 166.636 32.2924 166.894 32.5071C167.156 32.7186 167.485 32.8244 167.879 32.8244Z" fill="black"/>
<path d="M174.524 29.7939V34.0555H172.81V26.7823H174.448V28.0182H174.533C174.701 27.611 174.967 27.2874 175.334 27.0475C175.703 26.8076 176.159 26.6876 176.702 26.6876C177.204 26.6876 177.641 26.7949 178.014 27.0096C178.389 27.2243 178.68 27.5352 178.885 27.9424C179.093 28.3496 179.196 28.8437 179.193 29.4245V34.0555H177.479V29.6897C177.479 29.2036 177.352 28.8232 177.1 28.5485C176.85 28.2739 176.505 28.1366 176.063 28.1366C175.763 28.1366 175.496 28.2029 175.263 28.3354C175.032 28.4649 174.851 28.6527 174.718 28.8989C174.589 29.1452 174.524 29.4435 174.524 29.7939Z" fill="black"/>
<path d="M184.567 26.7823V28.1082H180.386V26.7823H184.567ZM181.418 25.0398H183.132V31.8679C183.132 32.0983 183.167 32.2751 183.237 32.3982C183.309 32.5182 183.404 32.6002 183.521 32.6444C183.637 32.6886 183.767 32.7107 183.909 32.7107C184.016 32.7107 184.114 32.7028 184.203 32.687C184.294 32.6713 184.364 32.6571 184.411 32.6444L184.7 33.9845C184.608 34.016 184.477 34.0508 184.307 34.0886C184.139 34.1265 183.934 34.1486 183.691 34.1549C183.262 34.1676 182.875 34.1029 182.531 33.9608C182.187 33.8156 181.914 33.5915 181.712 33.2884C181.513 32.9854 181.415 32.6065 181.418 32.152V25.0398Z" fill="black"/>
<path d="M189.142 34.1976C188.413 34.1976 187.783 34.046 187.253 33.743C186.726 33.4368 186.32 33.0043 186.036 32.4455C185.752 31.8836 185.61 31.2223 185.61 30.4615C185.61 29.7134 185.752 29.0568 186.036 28.4917C186.323 27.9235 186.724 27.4815 187.239 27.1659C187.754 26.847 188.358 26.6876 189.053 26.6876C189.501 26.6876 189.924 26.7602 190.322 26.9054C190.722 27.0475 191.076 27.2685 191.382 27.5683C191.692 27.8682 191.935 28.2502 192.111 28.7143C192.288 29.1751 192.377 29.7244 192.377 30.3621V30.8877H186.415V29.7323H190.733C190.73 29.404 190.659 29.112 190.52 28.8563C190.382 28.5975 190.187 28.3938 189.938 28.2455C189.692 28.0971 189.404 28.0229 189.076 28.0229C188.726 28.0229 188.418 28.1082 188.153 28.2786C187.888 28.4459 187.681 28.6669 187.533 28.9415C187.387 29.213 187.313 29.5113 187.31 29.8365V30.8451C187.31 31.2681 187.387 31.6311 187.542 31.9342C187.697 32.234 187.913 32.4645 188.191 32.6255C188.469 32.7833 188.794 32.8622 189.166 32.8622C189.416 32.8622 189.641 32.8275 189.843 32.7581C190.045 32.6855 190.221 32.5797 190.369 32.4408C190.517 32.3019 190.629 32.1299 190.705 31.9247L192.306 32.1046C192.205 32.5276 192.012 32.897 191.728 33.2126C191.447 33.5252 191.087 33.7682 190.648 33.9419C190.209 34.1123 189.708 34.1976 189.142 34.1976Z" fill="black"/>
<path d="M195.541 29.7939V34.0555H193.827V26.7823H195.465V28.0182H195.55C195.718 27.611 195.984 27.2874 196.351 27.0475C196.72 26.8076 197.176 26.6876 197.719 26.6876C198.221 26.6876 198.658 26.7949 199.031 27.0096C199.406 27.2243 199.697 27.5352 199.902 27.9424C200.11 28.3496 200.213 28.8437 200.21 29.4245V34.0555H198.496V29.6897C198.496 29.2036 198.369 28.8232 198.117 28.5485C197.867 28.2739 197.522 28.1366 197.08 28.1366C196.78 28.1366 196.513 28.2029 196.28 28.3354C196.049 28.4649 195.868 28.6527 195.735 28.8989C195.606 29.1452 195.541 29.4435 195.541 29.7939Z" fill="black"/>
<path d="M204.651 34.1833C204.08 34.1833 203.569 34.0366 203.117 33.743C202.666 33.4494 202.309 33.0232 202.047 32.4645C201.785 31.9057 201.654 31.227 201.654 30.4284C201.654 29.6202 201.787 28.9384 202.052 28.3828C202.32 27.824 202.681 27.4026 203.136 27.1185C203.591 26.8312 204.097 26.6876 204.656 26.6876C205.082 26.6876 205.433 26.7602 205.707 26.9054C205.982 27.0475 206.2 27.2195 206.361 27.4216C206.522 27.6204 206.646 27.8083 206.735 27.985H206.806V24.3579H208.525V34.0555H206.839V32.9096H206.735C206.646 33.0864 206.518 33.2742 206.351 33.4731C206.184 33.6688 205.963 33.8361 205.688 33.975C205.414 34.1139 205.068 34.1833 204.651 34.1833ZM205.13 32.777C205.493 32.777 205.802 32.6791 206.058 32.4834C206.313 32.2846 206.507 32.0083 206.64 31.6548C206.773 31.3012 206.839 30.8893 206.839 30.4189C206.839 29.9485 206.773 29.5397 206.64 29.1925C206.511 28.8453 206.318 28.5754 206.062 28.3828C205.81 28.1902 205.499 28.0939 205.13 28.0939C204.748 28.0939 204.429 28.1934 204.173 28.3923C203.917 28.5911 203.725 28.8658 203.595 29.2162C203.466 29.5666 203.401 29.9675 203.401 30.4189C203.401 30.8735 203.466 31.2791 203.595 31.6358C203.728 31.9894 203.922 32.2688 204.178 32.474C204.437 32.676 204.754 32.777 205.13 32.777Z" fill="black"/>
<path d="M216.358 34.1833C215.786 34.1833 215.275 34.0366 214.824 33.743C214.372 33.4494 214.015 33.0232 213.753 32.4645C213.491 31.9057 213.36 31.227 213.36 30.4284C213.36 29.6202 213.493 28.9384 213.758 28.3828C214.026 27.824 214.388 27.4026 214.843 27.1185C215.297 26.8312 215.804 26.6876 216.362 26.6876C216.789 26.6876 217.139 26.7602 217.414 26.9054C217.688 27.0475 217.906 27.2195 218.067 27.4216C218.228 27.6204 218.353 27.8083 218.441 27.985H218.512V24.3579H220.231V34.0555H218.545V32.9096H218.441C218.353 33.0864 218.225 33.2742 218.058 33.4731C217.89 33.6688 217.669 33.8361 217.395 33.975C217.12 34.1139 216.774 34.1833 216.358 34.1833ZM216.836 32.777C217.199 32.777 217.508 32.6791 217.764 32.4834C218.02 32.2846 218.214 32.0083 218.347 31.6548C218.479 31.3012 218.545 30.8893 218.545 30.4189C218.545 29.9485 218.479 29.5397 218.347 29.1925C218.217 28.8453 218.025 28.5754 217.769 28.3828C217.516 28.1902 217.205 28.0939 216.836 28.0939C216.454 28.0939 216.135 28.1934 215.88 28.3923C215.624 28.5911 215.431 28.8658 215.302 29.2162C215.172 29.5666 215.108 29.9675 215.108 30.4189C215.108 30.8735 215.172 31.2791 215.302 31.6358C215.434 31.9894 215.629 32.2688 215.884 32.474C216.143 32.676 216.46 32.777 216.836 32.777Z" fill="black"/>
<path d="M225.278 34.1976C224.548 34.1976 223.919 34.046 223.388 33.743C222.861 33.4368 222.455 33.0043 222.171 32.4455C221.887 31.8836 221.745 31.2223 221.745 30.4615C221.745 29.7134 221.887 29.0568 222.171 28.4917C222.459 27.9235 222.86 27.4815 223.374 27.1659C223.889 26.847 224.493 26.6876 225.188 26.6876C225.636 26.6876 226.059 26.7602 226.457 26.9054C226.858 27.0475 227.211 27.2685 227.517 27.5683C227.827 27.8682 228.07 28.2502 228.247 28.7143C228.423 29.1751 228.512 29.7244 228.512 30.3621V30.8877H222.55V29.7323H226.869C226.865 29.404 226.794 29.112 226.656 28.8563C226.517 28.5975 226.322 28.3938 226.073 28.2455C225.827 28.0971 225.54 28.0229 225.211 28.0229C224.861 28.0229 224.553 28.1082 224.288 28.2786C224.023 28.4459 223.816 28.6669 223.668 28.9415C223.522 29.213 223.448 29.5113 223.445 29.8365V30.8451C223.445 31.2681 223.522 31.6311 223.677 31.9342C223.832 32.234 224.048 32.4645 224.326 32.6255C224.604 32.7833 224.929 32.8622 225.301 32.8622C225.551 32.8622 225.776 32.8275 225.978 32.7581C226.18 32.6855 226.356 32.5797 226.504 32.4408C226.652 32.3019 226.764 32.1299 226.84 31.9247L228.441 32.1046C228.34 32.5276 228.147 32.897 227.863 33.2126C227.582 33.5252 227.222 33.7682 226.783 33.9419C226.345 34.1123 225.843 34.1976 225.278 34.1976Z" fill="black"/>
<path d="M236.25 26.7823L233.66 34.0555H231.766L229.176 26.7823H231.004L232.675 32.1851H232.751L234.427 26.7823H236.25Z" fill="black"/>
<path d="M240.409 34.1976C239.68 34.1976 239.05 34.046 238.519 33.743C237.992 33.4368 237.587 33.0043 237.302 32.4455C237.018 31.8836 236.876 31.2223 236.876 30.4615C236.876 29.7134 237.018 29.0568 237.302 28.4917C237.59 27.9235 237.991 27.4815 238.505 27.1659C239.02 26.847 239.624 26.6876 240.319 26.6876C240.767 26.6876 241.19 26.7602 241.588 26.9054C241.989 27.0475 242.342 27.2685 242.648 27.5683C242.958 27.8682 243.201 28.2502 243.378 28.7143C243.554 29.1751 243.643 29.7244 243.643 30.3621V30.8877H237.681V29.7323H242C241.997 29.404 241.926 29.112 241.787 28.8563C241.648 28.5975 241.454 28.3938 241.204 28.2455C240.958 28.0971 240.671 28.0229 240.342 28.0229C239.992 28.0229 239.684 28.1082 239.419 28.2786C239.154 28.4459 238.947 28.6669 238.799 28.9415C238.654 29.213 238.579 29.5113 238.576 29.8365V30.8451C238.576 31.2681 238.654 31.6311 238.808 31.9342C238.963 32.234 239.179 32.4645 239.457 32.6255C239.735 32.7833 240.06 32.8622 240.432 32.8622C240.682 32.8622 240.908 32.8275 241.11 32.7581C241.312 32.6855 241.487 32.5797 241.635 32.4408C241.784 32.3019 241.896 32.1299 241.971 31.9247L243.572 32.1046C243.471 32.5276 243.278 32.897 242.994 33.2126C242.713 33.5252 242.353 33.7682 241.915 33.9419C241.476 34.1123 240.974 34.1976 240.409 34.1976Z" fill="black"/>
<path d="M246.807 24.3579V34.0555H245.093V24.3579H246.807Z" fill="black"/>
<path d="M251.742 34.1976C251.032 34.1976 250.416 34.0413 249.896 33.7288C249.375 33.4163 248.971 32.979 248.683 32.4171C248.399 31.8552 248.257 31.1986 248.257 30.4473C248.257 29.696 248.399 29.0378 248.683 28.4728C248.971 27.9077 249.375 27.4689 249.896 27.1564C250.416 26.8439 251.032 26.6876 251.742 26.6876C252.453 26.6876 253.068 26.8439 253.589 27.1564C254.11 27.4689 254.512 27.9077 254.796 28.4728C255.084 29.0378 255.227 29.696 255.227 30.4473C255.227 31.1986 255.084 31.8552 254.796 32.4171C254.512 32.979 254.11 33.4163 253.589 33.7288C253.068 34.0413 252.453 34.1976 251.742 34.1976ZM251.752 32.8244C252.137 32.8244 252.459 32.7186 252.718 32.5071C252.977 32.2924 253.169 32.0052 253.295 31.6453C253.425 31.2854 253.49 30.8845 253.49 30.4426C253.49 29.9975 253.425 29.595 253.295 29.2351C253.169 28.8721 252.977 28.5832 252.718 28.3686C252.459 28.1539 252.137 28.0466 251.752 28.0466C251.357 28.0466 251.029 28.1539 250.767 28.3686C250.508 28.5832 250.314 28.8721 250.184 29.2351C250.058 29.595 249.995 29.9975 249.995 30.4426C249.995 30.8845 250.058 31.2854 250.184 31.6453C250.314 32.0052 250.508 32.2924 250.767 32.5071C251.029 32.7186 251.357 32.8244 251.752 32.8244Z" fill="black"/>
<path d="M256.682 36.7829V26.7823H258.368V27.985H258.467C258.556 27.8083 258.68 27.6204 258.841 27.4216C259.002 27.2195 259.22 27.0475 259.495 26.9054C259.77 26.7602 260.12 26.6876 260.546 26.6876C261.108 26.6876 261.615 26.8312 262.066 27.1185C262.521 27.4026 262.881 27.824 263.146 28.3828C263.414 28.9384 263.548 29.6202 263.548 30.4284C263.548 31.227 263.417 31.9057 263.155 32.4645C262.893 33.0232 262.536 33.4494 262.085 33.743C261.634 34.0366 261.122 34.1833 260.551 34.1833C260.134 34.1833 259.789 34.1139 259.514 33.975C259.239 33.8361 259.018 33.6688 258.851 33.4731C258.687 33.2742 258.559 33.0864 258.467 32.9096H258.396V36.7829H256.682ZM258.363 30.4189C258.363 30.8893 258.43 31.3012 258.562 31.6548C258.698 32.0083 258.892 32.2846 259.145 32.4834C259.4 32.6791 259.71 32.777 260.073 32.777C260.451 32.777 260.769 32.676 261.024 32.474C261.28 32.2688 261.473 31.9894 261.602 31.6358C261.735 31.2791 261.801 30.8735 261.801 30.4189C261.801 29.9675 261.736 29.5666 261.607 29.2162C261.477 28.8658 261.285 28.5911 261.029 28.3923C260.773 28.1934 260.455 28.0939 260.073 28.0939C259.706 28.0939 259.396 28.1902 259.14 28.3828C258.884 28.5754 258.69 28.8453 258.557 29.1925C258.428 29.5397 258.363 29.9485 258.363 30.4189Z" fill="black"/>
<path d="M268.236 34.1976C267.507 34.1976 266.877 34.046 266.347 33.743C265.82 33.4368 265.414 33.0043 265.13 32.4455C264.846 31.8836 264.704 31.2223 264.704 30.4615C264.704 29.7134 264.846 29.0568 265.13 28.4917C265.417 27.9235 265.818 27.4815 266.333 27.1659C266.847 26.847 267.452 26.6876 268.146 26.6876C268.594 26.6876 269.017 26.7602 269.415 26.9054C269.816 27.0475 270.17 27.2685 270.476 27.5683C270.785 27.8682 271.028 28.2502 271.205 28.7143C271.382 29.1751 271.47 29.7244 271.47 30.3621V30.8877H265.509V29.7323H269.827C269.824 29.404 269.753 29.112 269.614 28.8563C269.475 28.5975 269.281 28.3938 269.032 28.2455C268.785 28.0971 268.498 28.0229 268.17 28.0229C267.819 28.0229 267.512 28.1082 267.246 28.2786C266.981 28.4459 266.774 28.6669 266.626 28.9415C266.481 29.213 266.407 29.5113 266.404 29.8365V30.8451C266.404 31.2681 266.481 31.6311 266.636 31.9342C266.79 32.234 267.006 32.4645 267.284 32.6255C267.562 32.7833 267.887 32.8622 268.26 32.8622C268.509 32.8622 268.735 32.8275 268.937 32.7581C269.139 32.6855 269.314 32.5797 269.462 32.4408C269.611 32.3019 269.723 32.1299 269.799 31.9247L271.399 32.1046C271.298 32.5276 271.106 32.897 270.821 33.2126C270.54 33.5252 270.181 33.7682 269.742 33.9419C269.303 34.1123 268.801 34.1976 268.236 34.1976Z" fill="black"/>
<path d="M272.92 34.0555V26.7823H274.582V27.9945H274.658C274.791 27.5747 275.018 27.2511 275.34 27.0238C275.665 26.7934 276.036 26.6781 276.453 26.6781C276.547 26.6781 276.653 26.6829 276.77 26.6923C276.89 26.6987 276.989 26.7097 277.068 26.7255V28.3023C276.996 28.277 276.88 28.2549 276.723 28.236C276.568 28.2139 276.418 28.2029 276.273 28.2029C275.96 28.2029 275.679 28.2707 275.43 28.4065C275.184 28.5391 274.99 28.7237 274.847 28.9605C274.705 29.1972 274.634 29.4703 274.634 29.7797V34.0555H272.92Z" fill="black"/>
</svg>
