<svg width="52" height="40" viewBox="0 0 52 40" fill="none" xmlns="http://www.w3.org/2000/svg">
<path d="M4.63363 23.3822V20.0486L17.9678 14.177V18.0125L8.83844 21.6775L8.96155 21.4786V21.9521L8.83844 21.7533L17.9678 25.4183V29.2537L4.63363 23.3822Z" fill="black"/>
<path d="M30.4212 9.16725L24.1708 32.3884H20.6952L26.9456 9.16725H30.4212Z" fill="black"/>
<path d="M46.4852 23.3822L33.1511 29.2537V25.4183L42.2804 21.7533L42.1573 21.9521V21.4786L42.2804 21.6775L33.1511 18.0125V14.177L46.4852 20.0486V23.3822Z" fill="black"/>
<path fill-rule="evenodd" clip-rule="evenodd" d="M48.3364 2.77796H2.77795V37.2246H48.3364V2.77796ZM2.22236 2.22237V37.7802H48.892V2.22237H2.22236Z" fill="#2979FF"/>
<path d="M0 0H5.00032V5.00032H0V0Z" fill="white"/>
<path fill-rule="evenodd" clip-rule="evenodd" d="M4.44473 0.555591H0.555591V4.44473H4.44473V0.555591ZM0 0V5.00032H5.00032V0H0Z" fill="#2979FF"/>
<path d="M46.114 0H51.1143V5.00032H46.114V0Z" fill="white"/>
<path fill-rule="evenodd" clip-rule="evenodd" d="M50.5588 0.555591H46.6696V4.44473H50.5588V0.555591ZM46.114 0V5.00032H51.1143V0H46.114Z" fill="#2979FF"/>
<path d="M46.114 35.0022H51.1143V40.0025H46.114V35.0022Z" fill="white"/>
<path fill-rule="evenodd" clip-rule="evenodd" d="M50.5588 35.5578H46.6696V39.4469H50.5588V35.5578ZM46.114 35.0022V40.0025H51.1143V35.0022H46.114Z" fill="#2979FF"/>
<path d="M0 35.0022H5.00032V40.0025H0V35.0022Z" fill="white"/>
<path fill-rule="evenodd" clip-rule="evenodd" d="M4.44473 35.5578H0.555591V39.4469H4.44473V35.5578ZM0 35.0022V40.0025H5.00032V35.0022H0Z" fill="#2979FF"/>
</svg>
