<svg width="312" height="41" viewBox="0 0 312 41" fill="none" xmlns="http://www.w3.org/2000/svg">
<path d="M4.63364 23.3822V20.0486L17.9678 14.177V18.0125L8.83845 21.6775L8.96156 21.4786V21.9521L8.83845 21.7533L17.9678 25.4183V29.2537L4.63364 23.3822Z" fill="black"/>
<path d="M30.4212 9.16725L24.1709 32.3884H20.6953L26.9457 9.16725H30.4212Z" fill="black"/>
<path d="M46.4852 23.3822L33.1511 29.2537V25.4183L42.2804 21.7533L42.1573 21.9521V21.4786L42.2804 21.6775L33.1511 18.0125V14.177L46.4852 20.0486V23.3822Z" fill="black"/>
<path fill-rule="evenodd" clip-rule="evenodd" d="M48.3364 2.77795H2.77796V37.2246H48.3364V2.77795ZM2.22237 2.22236V37.7802H48.892V2.22236H2.22237Z" fill="#2979FF"/>
<path d="M0 0H5.00032V5.00032H0V0Z" fill="white"/>
<path fill-rule="evenodd" clip-rule="evenodd" d="M4.44473 0.555591H0.555591V4.44473H4.44473V0.555591ZM0 0V5.00032H5.00032V0H0Z" fill="#2979FF"/>
<path d="M46.114 0H51.1143V5.00032H46.114V0Z" fill="white"/>
<path fill-rule="evenodd" clip-rule="evenodd" d="M50.5588 0.555591H46.6696V4.44473H50.5588V0.555591ZM46.114 0V5.00032H51.1143V0H46.114Z" fill="#2979FF"/>
<path d="M46.114 35.0022H51.1143V40.0025H46.114V35.0022Z" fill="white"/>
<path fill-rule="evenodd" clip-rule="evenodd" d="M50.5588 35.5578H46.6696V39.4469H50.5588V35.5578ZM46.114 35.0022V40.0025H51.1143V35.0022H46.114Z" fill="#2979FF"/>
<path d="M0 35.0022H5.00032V40.0025H0V35.0022Z" fill="white"/>
<path fill-rule="evenodd" clip-rule="evenodd" d="M4.44473 35.5578H0.555591V39.4469H4.44473V35.5578ZM0 35.0022V40.0025H5.00032V35.0022H0Z" fill="#2979FF"/>
<path d="M69.0793 3.86577L65.9541 15.4764H64.453L67.5782 3.86577H69.0793Z" fill="black"/>
<path d="M74.1317 3.86577L71.0065 15.4764H69.5054L72.6306 3.86577H74.1317Z" fill="black"/>
<path d="M78.6088 14.0179V4.32035H84.916V5.79298H80.3655V8.42572H84.5892V9.89835H80.3655V12.5453H84.9539V14.0179H78.6088Z" fill="black"/>
<path d="M86.6325 14.0179V6.74474H89.6866C90.5484 6.74474 91.2287 6.91679 91.7275 7.26087C92.2294 7.60496 92.4804 8.08479 92.4804 8.70036C92.4804 9.10758 92.3383 9.44062 92.0542 9.69947C91.7733 9.95517 91.3897 10.1272 90.9036 10.2156C91.2855 10.2472 91.6202 10.3435 91.9074 10.5044C92.1978 10.6654 92.4251 10.8769 92.5893 11.139C92.7534 11.401 92.8355 11.7024 92.8355 12.0434C92.8355 12.4443 92.7298 12.7931 92.5183 13.0898C92.3099 13.3834 92.0053 13.6123 91.6044 13.7764C91.2066 13.9374 90.7236 14.0179 90.1554 14.0179H86.6325ZM88.2377 12.6684H90.1554C90.4711 12.6684 90.7189 12.5942 90.8988 12.4459C91.0788 12.2943 91.1687 12.0891 91.1687 11.8303C91.1687 11.5304 91.0788 11.2952 90.8988 11.1248C90.7189 10.9511 90.4711 10.8643 90.1554 10.8643H88.2377V12.6684ZM88.2377 9.7563H89.7198C89.9534 9.7563 90.1538 9.72315 90.3211 9.65686C90.4885 9.58741 90.6163 9.49113 90.7047 9.36801C90.7931 9.24174 90.8373 9.0918 90.8373 8.91818C90.8373 8.66879 90.7347 8.47307 90.5295 8.33102C90.3275 8.18896 90.0465 8.11794 89.6866 8.11794H88.2377V9.7563Z" fill="black"/>
<path d="M99.061 6.74474V8.15108H95.9264V14.0179H94.2501V6.74474H99.061Z" fill="black"/>
<path d="M103.356 14.16C102.627 14.16 101.997 14.0085 101.466 13.7054C100.939 13.3992 100.534 12.9667 100.25 12.408C99.9655 11.8461 99.8234 11.1847 99.8234 10.424C99.8234 9.6758 99.9655 9.01919 100.25 8.45413C100.537 7.88591 100.938 7.44397 101.452 7.12829C101.967 6.80946 102.571 6.65004 103.266 6.65004C103.714 6.65004 104.137 6.72265 104.535 6.86786C104.936 7.00991 105.289 7.23088 105.596 7.53078C105.905 7.83067 106.148 8.21264 106.325 8.67668C106.502 9.13757 106.59 9.68685 106.59 10.3245V10.8501H100.628V9.69474H104.947C104.944 9.36644 104.873 9.07444 104.734 8.81874C104.595 8.55988 104.401 8.35627 104.151 8.2079C103.905 8.05954 103.618 7.98535 103.29 7.98535C102.939 7.98535 102.631 8.07058 102.366 8.24105C102.101 8.40836 101.894 8.62933 101.746 8.90397C101.601 9.17545 101.526 9.47377 101.523 9.79891V10.8075C101.523 11.2305 101.601 11.5935 101.755 11.8966C101.91 12.1965 102.126 12.4269 102.404 12.5879C102.682 12.7458 103.007 12.8247 103.379 12.8247C103.629 12.8247 103.855 12.7899 104.057 12.7205C104.259 12.6479 104.434 12.5421 104.582 12.4032C104.731 12.2643 104.843 12.0923 104.918 11.8871L106.519 12.067C106.418 12.4901 106.225 12.8594 105.941 13.1751C105.66 13.4876 105.3 13.7307 104.862 13.9043C104.423 14.0748 103.921 14.16 103.356 14.16Z" fill="black"/>
<path d="M113.036 9.67106V11.0774H109.162V9.67106H113.036ZM109.693 6.74474V14.0179H108.04V6.74474H109.693ZM114.158 6.74474V14.0179H112.51V6.74474H114.158Z" fill="black"/>
<path d="M117.545 11.6977L120.457 6.74474H122.218V14.0179H120.561V9.06023L117.658 14.0179H115.892V6.74474H117.545V11.6977Z" fill="black"/>
<path d="M125.631 11.6977L128.543 6.74474H130.305V14.0179H128.647V9.06023L125.745 14.0179H123.979V6.74474H125.631V11.6977ZM128.074 4.24458H129.358C129.358 4.79702 129.157 5.24528 128.756 5.58937C128.359 5.9303 127.819 6.10076 127.137 6.10076C126.461 6.10076 125.923 5.9303 125.522 5.58937C125.124 5.24528 124.927 4.79702 124.93 4.24458H126.204C126.204 4.47187 126.274 4.67548 126.412 4.85542C126.554 5.0322 126.796 5.12059 127.137 5.12059C127.472 5.12059 127.71 5.0322 127.852 4.85542C127.997 4.67864 128.071 4.47503 128.074 4.24458Z" fill="black"/>
<path d="M143.749 7.59233H141.978C141.928 7.30191 141.834 7.04463 141.699 6.8205C141.563 6.59322 141.394 6.40065 141.192 6.24282C140.99 6.08498 140.76 5.9666 140.501 5.88768C140.245 5.8056 139.969 5.76457 139.672 5.76457C139.145 5.76457 138.678 5.89715 138.27 6.16232C137.863 6.42433 137.544 6.80946 137.314 7.31769C137.083 7.82278 136.968 8.43993 136.968 9.16914C136.968 9.91098 137.083 10.536 137.314 11.0443C137.548 11.5493 137.866 11.9313 138.27 12.1902C138.678 12.4459 139.143 12.5737 139.667 12.5737C139.958 12.5737 140.229 12.5358 140.482 12.4601C140.737 12.3811 140.966 12.2659 141.168 12.1144C141.374 11.9629 141.546 11.7766 141.684 11.5557C141.827 11.3347 141.924 11.0821 141.978 10.798L143.749 10.8075C143.683 11.2684 143.539 11.7009 143.318 12.1049C143.1 12.509 142.815 12.8657 142.461 13.1751C142.107 13.4813 141.694 13.7212 141.22 13.8948C140.747 14.0653 140.221 14.1505 139.644 14.1505C138.791 14.1505 138.031 13.9532 137.361 13.5586C136.692 13.164 136.165 12.5942 135.78 11.8492C135.395 11.1042 135.202 10.2109 135.202 9.16914C135.202 8.12425 135.396 7.23088 135.784 6.48904C136.173 5.74405 136.702 5.17425 137.371 4.77966C138.04 4.38506 138.798 4.18776 139.644 4.18776C140.183 4.18776 140.685 4.26352 141.149 4.41505C141.613 4.56657 142.027 4.78913 142.39 5.08271C142.753 5.37313 143.051 5.72984 143.285 6.15285C143.522 6.5727 143.676 7.05253 143.749 7.59233Z" fill="black"/>
<path d="M147.375 14.1647C146.914 14.1647 146.499 14.0826 146.13 13.9185C145.763 13.7512 145.473 13.505 145.258 13.1798C145.047 12.8547 144.941 12.4538 144.941 11.9771C144.941 11.5667 145.017 11.2273 145.168 10.959C145.32 10.6907 145.527 10.476 145.789 10.315C146.051 10.154 146.346 10.0325 146.674 9.95044C147.006 9.86521 147.348 9.80365 147.702 9.76577C148.128 9.72157 148.473 9.68211 148.739 9.64739C149.004 9.60951 149.196 9.55269 149.316 9.47692C149.439 9.398 149.501 9.27647 149.501 9.11232V9.08391C149.501 8.72719 149.395 8.45097 149.184 8.25525C148.972 8.05954 148.668 7.96168 148.27 7.96168C147.85 7.96168 147.517 8.05322 147.271 8.23631C147.028 8.41941 146.864 8.63564 146.778 8.88503L145.178 8.65774C145.304 8.2158 145.512 7.84645 145.803 7.54972C146.093 7.24982 146.448 7.02569 146.868 6.87733C147.288 6.7258 147.752 6.65004 148.26 6.65004C148.611 6.65004 148.96 6.69108 149.307 6.77315C149.654 6.85523 149.971 6.99097 150.259 7.18038C150.546 7.36663 150.776 7.62074 150.95 7.94273C151.127 8.26472 151.215 8.66721 151.215 9.1502V14.0179H149.567V13.0188H149.51C149.406 13.2208 149.26 13.4103 149.07 13.587C148.884 13.7607 148.649 13.9011 148.365 14.0085C148.084 14.1126 147.754 14.1647 147.375 14.1647ZM147.82 12.9052C148.164 12.9052 148.462 12.8373 148.715 12.7016C148.968 12.5627 149.162 12.3796 149.297 12.1523C149.436 11.925 149.506 11.6772 149.506 11.4089V10.5518C149.452 10.596 149.361 10.637 149.231 10.6749C149.105 10.7128 148.963 10.7459 148.805 10.7744C148.647 10.8028 148.491 10.828 148.336 10.8501C148.181 10.8722 148.047 10.8912 147.934 10.9069C147.678 10.9417 147.449 10.9985 147.247 11.0774C147.045 11.1563 146.886 11.2668 146.769 11.4089C146.652 11.5478 146.594 11.7277 146.594 11.9487C146.594 12.2643 146.709 12.5027 146.939 12.6637C147.17 12.8247 147.463 12.9052 147.82 12.9052Z" fill="black"/>
<path d="M152.465 14.0179L155.15 10.263L152.489 6.74474H154.468L156.537 9.6758H156.945V6.74474H158.659V9.6758H159.057L161.126 6.74474H163.105L160.458 10.263L163.129 14.0179H161.107L159.038 11.0821H158.659V14.0179H156.945V11.0821H156.566L154.487 14.0179H152.465Z" fill="black"/>
<path d="M166.063 11.6977L168.975 6.74474H170.737V14.0179H169.08V9.06023L166.177 14.0179H164.411V6.74474H166.063V11.6977Z" fill="black"/>
<path d="M177.493 9.67106V11.0774H173.619V9.67106H177.493ZM174.15 6.74474V14.0179H172.497V6.74474H174.15ZM178.615 6.74474V14.0179H176.967V6.74474H178.615Z" fill="black"/>
<path d="M69.0793 23.2546L65.9541 34.8652H64.453L67.5782 23.2546H69.0793Z" fill="black"/>
<path d="M74.1317 23.2546L71.0065 34.8652H69.5054L72.6306 23.2546H74.1317Z" fill="black"/>
<path d="M77.979 35.7459V31.972H78.6277C78.8455 31.7984 79.0491 31.5538 79.2385 31.2381C79.4279 30.9224 79.5889 30.4899 79.7215 29.9407C79.8541 29.3914 79.9456 28.6811 79.9962 27.8098L80.2519 23.7092H86.4502V31.972H87.5298V35.7365H85.8441V33.4068H79.6647V35.7459H77.979ZM80.6733 31.972H84.7644V25.1818H81.8334L81.6819 27.8098C81.6408 28.4696 81.5745 29.0599 81.483 29.5808C81.3914 30.1016 81.2762 30.561 81.1373 30.9587C80.9984 31.3533 80.8437 31.6911 80.6733 31.972Z" fill="black"/>
<path d="M90.5378 31.0866L93.4499 26.1336H95.2114V33.4068H93.5541V28.4491L90.6514 33.4068H88.8852V26.1336H90.5378V31.0866Z" fill="black"/>
<path d="M96.5692 31.4133H98.2691C98.2849 31.6848 98.4064 31.8947 98.6337 32.0431C98.861 32.1914 99.1561 32.2656 99.5192 32.2656C99.8885 32.2656 100.199 32.1851 100.452 32.0241C100.708 31.86 100.836 31.6122 100.836 31.2807C100.836 31.085 100.787 30.9129 100.689 30.7646C100.591 30.613 100.454 30.4962 100.277 30.4142C100.1 30.3321 99.8917 30.2911 99.6518 30.2911H98.539V29.0741H99.6518C100.008 29.0741 100.278 28.992 100.461 28.8279C100.648 28.6637 100.741 28.457 100.741 28.2076C100.741 27.9393 100.643 27.7214 100.447 27.5541C100.255 27.3868 99.9879 27.3032 99.647 27.3032C99.3061 27.3032 99.022 27.3805 98.7947 27.5352C98.5706 27.6899 98.4538 27.8888 98.4443 28.1318H96.7538C96.7602 27.7088 96.8864 27.3411 97.1327 27.0285C97.382 26.716 97.7167 26.4729 98.1365 26.2993C98.5595 26.1257 99.0362 26.0389 99.5665 26.0389C100.135 26.0389 100.626 26.1241 101.039 26.2946C101.453 26.4651 101.772 26.7034 101.996 27.0096C102.22 27.3126 102.332 27.6694 102.332 28.0797C102.332 28.4743 102.209 28.8011 101.963 29.0599C101.716 29.3156 101.385 29.4987 100.968 29.6092V29.685C101.255 29.7007 101.514 29.7828 101.745 29.9312C101.975 30.0764 102.158 30.2737 102.294 30.5231C102.43 30.7725 102.498 31.0613 102.498 31.3896C102.498 31.8347 102.37 32.2198 102.114 32.545C101.858 32.867 101.506 33.1148 101.058 33.2884C100.613 33.462 100.103 33.5488 99.5286 33.5488C98.9699 33.5488 98.4695 33.4652 98.0276 33.2979C97.5888 33.1274 97.24 32.8828 96.9811 32.5639C96.7223 32.2451 96.585 31.8615 96.5692 31.4133Z" fill="black"/>
<path d="M105.94 33.5536C105.479 33.5536 105.064 33.4715 104.695 33.3073C104.328 33.14 104.038 32.8938 103.823 32.5687C103.612 32.2435 103.506 31.8426 103.506 31.3659C103.506 30.9556 103.582 30.6162 103.733 30.3479C103.885 30.0795 104.092 29.8649 104.354 29.7039C104.616 29.5429 104.911 29.4214 105.239 29.3393C105.571 29.2541 105.913 29.1925 106.267 29.1546C106.693 29.1104 107.039 29.071 107.304 29.0362C107.569 28.9984 107.761 28.9415 107.881 28.8658C108.005 28.7869 108.066 28.6653 108.066 28.5012V28.4728C108.066 28.116 107.96 27.8398 107.749 27.6441C107.537 27.4484 107.233 27.3505 106.835 27.3505C106.415 27.3505 106.082 27.4421 105.836 27.6252C105.593 27.8083 105.429 28.0245 105.343 28.2739L103.743 28.0466C103.869 27.6046 104.078 27.2353 104.368 26.9386C104.658 26.6387 105.014 26.4145 105.433 26.2662C105.853 26.1147 106.317 26.0389 106.826 26.0389C107.176 26.0389 107.525 26.0799 107.872 26.162C108.219 26.2441 108.536 26.3798 108.824 26.5692C109.111 26.7555 109.341 27.0096 109.515 27.3316C109.692 27.6536 109.78 28.0561 109.78 28.539V33.4068H108.132V32.4077H108.076C107.971 32.6097 107.825 32.7991 107.635 32.9759C107.449 33.1495 107.214 33.29 106.93 33.3973C106.649 33.5015 106.319 33.5536 105.94 33.5536ZM106.385 32.294C106.729 32.294 107.028 32.2261 107.28 32.0904C107.533 31.9515 107.727 31.7684 107.862 31.5411C108.001 31.3138 108.071 31.066 108.071 30.7977V29.9407C108.017 29.9848 107.926 30.0259 107.796 30.0638C107.67 30.1016 107.528 30.1348 107.37 30.1632C107.212 30.1916 107.056 30.2169 106.901 30.239C106.747 30.2611 106.612 30.28 106.499 30.2958C106.243 30.3305 106.014 30.3873 105.812 30.4663C105.61 30.5452 105.451 30.6557 105.334 30.7977C105.217 30.9366 105.159 31.1165 105.159 31.3375C105.159 31.6532 105.274 31.8915 105.504 32.0525C105.735 32.2135 106.028 32.294 106.385 32.294Z" fill="black"/>
<path d="M113.156 31.0866L116.069 26.1336H117.83V33.4068H116.173V28.4491L113.27 33.4068H111.504V26.1336H113.156V31.0866ZM115.6 23.6334H116.883C116.883 24.1859 116.682 24.6341 116.282 24.9782C115.884 25.3191 115.344 25.4896 114.662 25.4896C113.987 25.4896 113.448 25.3191 113.047 24.9782C112.65 24.6341 112.452 24.1859 112.456 23.6334H113.729C113.729 23.8607 113.799 24.0643 113.938 24.2443C114.08 24.421 114.321 24.5094 114.662 24.5094C114.997 24.5094 115.235 24.421 115.377 24.2443C115.522 24.0675 115.597 23.8639 115.6 23.6334Z" fill="black"/>
<path d="M124.586 29.0599V30.4663H120.713V29.0599H124.586ZM121.243 26.1336V33.4068H119.59V26.1336H121.243ZM125.708 26.1336V33.4068H124.06V26.1336H125.708Z" fill="black"/>
<path d="M130.662 33.5488C129.933 33.5488 129.303 33.3973 128.773 33.0943C128.246 32.7881 127.84 32.3556 127.556 31.7968C127.272 31.2349 127.13 30.5736 127.13 29.8128C127.13 29.0646 127.272 28.408 127.556 27.843C127.843 27.2748 128.244 26.8328 128.759 26.5171C129.273 26.1983 129.878 26.0389 130.572 26.0389C131.021 26.0389 131.444 26.1115 131.841 26.2567C132.242 26.3988 132.596 26.6197 132.902 26.9196C133.211 27.2195 133.454 27.6015 133.631 28.0655C133.808 28.5264 133.896 29.0757 133.896 29.7134V30.239H127.935V29.0836H132.253C132.25 28.7553 132.179 28.4633 132.04 28.2076C131.901 27.9487 131.707 27.7451 131.458 27.5968C131.212 27.4484 130.924 27.3742 130.596 27.3742C130.246 27.3742 129.938 27.4594 129.673 27.6299C129.407 27.7972 129.201 28.0182 129.052 28.2928C128.907 28.5643 128.833 28.8626 128.83 29.1878V30.1963C128.83 30.6194 128.907 30.9824 129.062 31.2854C129.216 31.5853 129.433 31.8158 129.71 31.9768C129.988 32.1346 130.313 32.2135 130.686 32.2135C130.935 32.2135 131.161 32.1788 131.363 32.1093C131.565 32.0367 131.74 31.931 131.889 31.7921C132.037 31.6532 132.149 31.4812 132.225 31.276L133.825 31.4559C133.724 31.8789 133.532 32.2482 133.248 32.5639C132.967 32.8764 132.607 33.1195 132.168 33.2931C131.729 33.4636 131.227 33.5488 130.662 33.5488Z" fill="black"/>
<path d="M135.346 36.1342V26.1336H137.032V27.3363H137.132C137.22 27.1595 137.345 26.9717 137.506 26.7728C137.667 26.5708 137.885 26.3988 138.159 26.2567C138.434 26.1115 138.784 26.0389 139.21 26.0389C139.772 26.0389 140.279 26.1825 140.73 26.4698C141.185 26.7539 141.545 27.1753 141.81 27.7341C142.078 28.2897 142.212 28.9715 142.212 29.7797C142.212 30.5783 142.081 31.257 141.819 31.8158C141.557 32.3745 141.201 32.8007 140.749 33.0943C140.298 33.3878 139.786 33.5346 139.215 33.5346C138.798 33.5346 138.453 33.4652 138.178 33.3263C137.903 33.1874 137.682 33.0201 137.515 32.8244C137.351 32.6255 137.223 32.4377 137.132 32.2609H137.061V36.1342H135.346ZM137.027 29.7702C137.027 30.2405 137.094 30.6525 137.226 31.0061C137.362 31.3596 137.556 31.6358 137.809 31.8347C138.064 32.0304 138.374 32.1283 138.737 32.1283C139.116 32.1283 139.433 32.0273 139.689 31.8252C139.944 31.6201 140.137 31.3407 140.266 30.9871C140.399 30.6304 140.465 30.2248 140.465 29.7702C140.465 29.3188 140.4 28.9179 140.271 28.5675C140.142 28.2171 139.949 27.9424 139.693 27.7435C139.438 27.5447 139.119 27.4452 138.737 27.4452C138.371 27.4452 138.06 27.5415 137.804 27.7341C137.548 27.9266 137.354 28.1965 137.222 28.5438C137.092 28.891 137.027 29.2998 137.027 29.7702Z" fill="black"/>
<path d="M148.64 31.0866L151.553 26.1336H153.314V33.4068H151.657V28.4491L148.754 33.4068H146.988V26.1336H148.64V31.0866Z" fill="black"/>
<path d="M161.682 35.8785V23.7092H163.401V35.8785H161.682ZM161.682 33.5488C161.149 33.5488 160.661 33.4589 160.219 33.2789C159.777 33.099 159.395 32.8433 159.073 32.5118C158.754 32.1804 158.506 31.7858 158.33 31.328C158.156 30.8672 158.069 30.3573 158.069 29.7986C158.069 29.2399 158.156 28.73 158.33 28.2691C158.506 27.8083 158.754 27.4121 159.073 27.0806C159.395 26.746 159.777 26.4887 160.219 26.3088C160.661 26.1289 161.149 26.0389 161.682 26.0389H162.047V33.5488H161.682ZM161.682 32.1662H161.895V27.4216H161.682C161.379 27.4216 161.111 27.4847 160.877 27.611C160.647 27.7341 160.453 27.9061 160.295 28.1271C160.14 28.3449 160.022 28.5974 159.94 28.8847C159.861 29.1688 159.821 29.4735 159.821 29.7986C159.821 30.2311 159.892 30.6272 160.034 30.9871C160.176 31.3438 160.385 31.6295 160.659 31.8442C160.937 32.0588 161.278 32.1662 161.682 32.1662ZM163.401 33.5488H163.036V26.0389H163.401C163.935 26.0389 164.422 26.1289 164.864 26.3088C165.306 26.4887 165.687 26.746 166.005 27.0806C166.327 27.4121 166.575 27.8083 166.749 28.2691C166.926 28.73 167.014 29.2399 167.014 29.7986C167.014 30.3573 166.926 30.8672 166.749 31.328C166.575 31.7858 166.327 32.1804 166.005 32.5118C165.687 32.8433 165.306 33.099 164.864 33.2789C164.422 33.4589 163.935 33.5488 163.401 33.5488ZM163.401 32.1662C163.707 32.1662 163.976 32.1046 164.206 31.9815C164.436 31.8584 164.629 31.6879 164.784 31.4701C164.942 31.2523 165.06 31.0013 165.139 30.7172C165.218 30.43 165.257 30.1237 165.257 29.7986C165.257 29.3661 165.188 28.9699 165.049 28.6101C164.91 28.2502 164.702 27.9629 164.424 27.7483C164.149 27.5305 163.808 27.4216 163.401 27.4216H163.188V32.1662H163.401Z" fill="black"/>
<path d="M168.461 36.1342V26.1336H170.146V27.3363H170.246C170.334 27.1595 170.459 26.9717 170.62 26.7728C170.781 26.5708 170.999 26.3988 171.273 26.2567C171.548 26.1115 171.898 26.0389 172.324 26.0389C172.886 26.0389 173.393 26.1825 173.844 26.4698C174.299 26.7539 174.659 27.1753 174.924 27.7341C175.192 28.2897 175.326 28.9715 175.326 29.7797C175.326 30.5783 175.196 31.257 174.933 31.8158C174.671 32.3745 174.315 32.8007 173.863 33.0943C173.412 33.3878 172.901 33.5346 172.329 33.5346C171.912 33.5346 171.567 33.4652 171.292 33.3263C171.018 33.1874 170.797 33.0201 170.629 32.8244C170.465 32.6255 170.337 32.4377 170.246 32.2609H170.175V36.1342H168.461ZM170.142 29.7702C170.142 30.2405 170.208 30.6525 170.34 31.0061C170.476 31.3596 170.67 31.6358 170.923 31.8347C171.179 32.0304 171.488 32.1283 171.851 32.1283C172.23 32.1283 172.547 32.0273 172.803 31.8252C173.058 31.6201 173.251 31.3407 173.38 30.9871C173.513 30.6304 173.579 30.2248 173.579 29.7702C173.579 29.3188 173.515 28.9179 173.385 28.5675C173.256 28.2171 173.063 27.9424 172.807 27.7435C172.552 27.5447 172.233 27.4452 171.851 27.4452C171.485 27.4452 171.174 27.5415 170.918 27.7341C170.662 27.9266 170.468 28.1965 170.336 28.5438C170.206 28.891 170.142 29.2998 170.142 29.7702Z" fill="black"/>
<path d="M179.967 33.5488C179.257 33.5488 178.641 33.3926 178.12 33.0801C177.599 32.7675 177.195 32.3303 176.908 31.7684C176.624 31.2065 176.482 30.5499 176.482 29.7986C176.482 29.0473 176.624 28.3891 176.908 27.824C177.195 27.259 177.599 26.8202 178.12 26.5077C178.641 26.1952 179.257 26.0389 179.967 26.0389C180.677 26.0389 181.293 26.1952 181.814 26.5077C182.335 26.8202 182.737 27.259 183.021 27.824C183.308 28.3891 183.452 29.0473 183.452 29.7986C183.452 30.5499 183.308 31.2065 183.021 31.7684C182.737 32.3303 182.335 32.7675 181.814 33.0801C181.293 33.3926 180.677 33.5488 179.967 33.5488ZM179.976 32.1756C180.362 32.1756 180.684 32.0699 180.942 31.8584C181.201 31.6437 181.394 31.3565 181.52 30.9966C181.65 30.6367 181.714 30.2358 181.714 29.7939C181.714 29.3488 181.65 28.9463 181.52 28.5864C181.394 28.2234 181.201 27.9345 180.942 27.7199C180.684 27.5052 180.362 27.3979 179.976 27.3979C179.582 27.3979 179.254 27.5052 178.992 27.7199C178.733 27.9345 178.539 28.2234 178.409 28.5864C178.283 28.9463 178.22 29.3488 178.22 29.7939C178.22 30.2358 178.283 30.6367 178.409 30.9966C178.539 31.3565 178.733 31.6437 178.992 31.8584C179.254 32.0699 179.582 32.1756 179.976 32.1756Z" fill="black"/>
<path d="M189.902 29.0599V30.4663H186.029V29.0599H189.902ZM186.559 26.1336V33.4068H184.907V26.1336H186.559ZM191.025 26.1336V33.4068H189.377V26.1336H191.025Z" fill="black"/>
<path d="M191.945 27.5399V26.1336H198.309V27.5399H195.955V33.4068H194.298V27.5399H191.945Z" fill="black"/>
<path d="M202.594 33.5488C201.865 33.5488 201.235 33.3973 200.705 33.0943C200.177 32.7881 199.772 32.3556 199.488 31.7968C199.203 31.2349 199.061 30.5736 199.061 29.8128C199.061 29.0646 199.203 28.408 199.488 27.843C199.775 27.2748 200.176 26.8328 200.69 26.5171C201.205 26.1983 201.809 26.0389 202.504 26.0389C202.952 26.0389 203.375 26.1115 203.773 26.2567C204.174 26.3988 204.527 26.6197 204.834 26.9196C205.143 27.2195 205.386 27.6015 205.563 28.0655C205.74 28.5264 205.828 29.0757 205.828 29.7134V30.239H199.866V29.0836H204.185C204.182 28.7553 204.111 28.4633 203.972 28.2076C203.833 27.9487 203.639 27.7451 203.389 27.5968C203.143 27.4484 202.856 27.3742 202.528 27.3742C202.177 27.3742 201.869 27.4594 201.604 27.6299C201.339 27.7972 201.132 28.0182 200.984 28.2928C200.839 28.5643 200.765 28.8626 200.761 29.1878V30.1963C200.761 30.6194 200.839 30.9824 200.993 31.2854C201.148 31.5853 201.364 31.8158 201.642 31.9768C201.92 32.1346 202.245 32.2135 202.618 32.2135C202.867 32.2135 203.093 32.1788 203.295 32.1093C203.497 32.0367 203.672 31.931 203.82 31.7921C203.969 31.6532 204.081 31.4812 204.156 31.276L205.757 31.4559C205.656 31.8789 205.463 32.2482 205.179 32.5639C204.898 32.8764 204.538 33.1195 204.1 33.2931C203.661 33.4636 203.159 33.5488 202.594 33.5488Z" fill="black"/>
<path d="M212.274 29.0599V30.4663H208.4V29.0599H212.274ZM208.931 26.1336V33.4068H207.278V26.1336H208.931ZM213.396 26.1336V33.4068H211.748V26.1336H213.396Z" fill="black"/>
<path d="M214.486 35.5187V31.9957H215.064C215.219 31.8757 215.348 31.7132 215.452 31.508C215.556 31.2996 215.642 31.055 215.708 30.774C215.777 30.4899 215.834 30.1727 215.878 29.8223C215.923 29.4687 215.962 29.0883 215.997 28.6811L216.205 26.1336H221.461V31.9957H222.588V35.5187H220.931V33.4068H216.172V35.5187H214.486ZM216.825 31.9957H219.823V27.5163H217.692L217.578 28.6811C217.515 29.4514 217.431 30.1111 217.327 30.6604C217.223 31.2097 217.056 31.6548 216.825 31.9957Z" fill="black"/>
<path d="M227.175 36.1342V26.1336H228.861V27.3363H228.96C229.049 27.1595 229.173 26.9717 229.334 26.7728C229.495 26.5708 229.713 26.3988 229.988 26.2567C230.263 26.1115 230.613 26.0389 231.039 26.0389C231.601 26.0389 232.108 26.1825 232.559 26.4698C233.014 26.7539 233.374 27.1753 233.639 27.7341C233.907 28.2897 234.041 28.9715 234.041 29.7797C234.041 30.5783 233.91 31.257 233.648 31.8158C233.386 32.3745 233.029 32.8007 232.578 33.0943C232.127 33.3878 231.615 33.5346 231.044 33.5346C230.627 33.5346 230.281 33.4652 230.007 33.3263C229.732 33.1874 229.511 33.0201 229.344 32.8244C229.18 32.6255 229.052 32.4377 228.96 32.2609H228.889V36.1342H227.175ZM228.856 29.7702C228.856 30.2405 228.922 30.6525 229.055 31.0061C229.191 31.3596 229.385 31.6358 229.637 31.8347C229.893 32.0304 230.203 32.1283 230.566 32.1283C230.944 32.1283 231.262 32.0273 231.517 31.8252C231.773 31.6201 231.966 31.3407 232.095 30.9871C232.228 30.6304 232.294 30.2248 232.294 29.7702C232.294 29.3188 232.229 28.9179 232.1 28.5675C231.97 28.2171 231.778 27.9424 231.522 27.7435C231.266 27.5447 230.948 27.4452 230.566 27.4452C230.199 27.4452 229.888 27.5415 229.633 27.7341C229.377 27.9266 229.183 28.1965 229.05 28.5438C228.921 28.891 228.856 29.2998 228.856 29.7702Z" fill="black"/>
<path d="M237.602 33.5536C237.141 33.5536 236.726 33.4715 236.357 33.3073C235.99 33.14 235.7 32.8938 235.485 32.5687C235.274 32.2435 235.168 31.8426 235.168 31.3659C235.168 30.9556 235.244 30.6162 235.395 30.3479C235.547 30.0795 235.754 29.8649 236.016 29.7039C236.278 29.5429 236.573 29.4214 236.901 29.3393C237.233 29.2541 237.575 29.1925 237.929 29.1546C238.355 29.1104 238.701 29.071 238.966 29.0362C239.231 28.9984 239.423 28.9415 239.543 28.8658C239.667 28.7869 239.728 28.6653 239.728 28.5012V28.4728C239.728 28.116 239.622 27.8398 239.411 27.6441C239.199 27.4484 238.895 27.3505 238.497 27.3505C238.077 27.3505 237.744 27.4421 237.498 27.6252C237.255 27.8083 237.091 28.0245 237.005 28.2739L235.405 28.0466C235.531 27.6046 235.74 27.2353 236.03 26.9386C236.32 26.6387 236.675 26.4145 237.095 26.2662C237.515 26.1147 237.979 26.0389 238.487 26.0389C238.838 26.0389 239.187 26.0799 239.534 26.162C239.881 26.2441 240.198 26.3798 240.486 26.5692C240.773 26.7555 241.003 27.0096 241.177 27.3316C241.354 27.6536 241.442 28.0561 241.442 28.539V33.4068H239.794V32.4077H239.738C239.633 32.6097 239.487 32.7991 239.297 32.9759C239.111 33.1495 238.876 33.29 238.592 33.3973C238.311 33.5015 237.981 33.5536 237.602 33.5536ZM238.047 32.294C238.391 32.294 238.689 32.2261 238.942 32.0904C239.195 31.9515 239.389 31.7684 239.524 31.5411C239.663 31.3138 239.733 31.066 239.733 30.7977V29.9407C239.679 29.9848 239.588 30.0259 239.458 30.0638C239.332 30.1016 239.19 30.1348 239.032 30.1632C238.874 30.1916 238.718 30.2169 238.563 30.239C238.409 30.2611 238.274 30.28 238.161 30.2958C237.905 30.3305 237.676 30.3873 237.474 30.4663C237.272 30.5452 237.113 30.6557 236.996 30.7977C236.879 30.9366 236.821 31.1165 236.821 31.3375C236.821 31.6532 236.936 31.8915 237.166 32.0525C237.397 32.2135 237.69 32.294 238.047 32.294Z" fill="black"/>
<path d="M242.763 31.4133H244.463C244.479 31.6848 244.601 31.8947 244.828 32.0431C245.055 32.1914 245.35 32.2656 245.713 32.2656C246.083 32.2656 246.394 32.1851 246.646 32.0241C246.902 31.86 247.03 31.6122 247.03 31.2807C247.03 31.085 246.981 30.9129 246.883 30.7646C246.785 30.613 246.648 30.4962 246.471 30.4142C246.294 30.3321 246.086 30.2911 245.846 30.2911H244.733V29.0741H245.846C246.203 29.0741 246.473 28.992 246.656 28.8279C246.842 28.6637 246.935 28.457 246.935 28.2076C246.935 27.9393 246.837 27.7214 246.641 27.5541C246.449 27.3868 246.182 27.3032 245.841 27.3032C245.5 27.3032 245.216 27.3805 244.989 27.5352C244.765 27.6899 244.648 27.8888 244.638 28.1318H242.948C242.954 27.7088 243.081 27.3411 243.327 27.0285C243.576 26.716 243.911 26.4729 244.331 26.2993C244.754 26.1257 245.23 26.0389 245.761 26.0389C246.329 26.0389 246.82 26.1241 247.233 26.2946C247.647 26.4651 247.966 26.7034 248.19 27.0096C248.414 27.3126 248.526 27.6694 248.526 28.0797C248.526 28.4743 248.403 28.8011 248.157 29.0599C247.91 29.3156 247.579 29.4987 247.162 29.6092V29.685C247.45 29.7007 247.708 29.7828 247.939 29.9312C248.169 30.0764 248.352 30.2737 248.488 30.5231C248.624 30.7725 248.692 31.0613 248.692 31.3896C248.692 31.8347 248.564 32.2198 248.308 32.545C248.052 32.867 247.7 33.1148 247.252 33.2884C246.807 33.462 246.297 33.5488 245.723 33.5488C245.164 33.5488 244.664 33.4652 244.222 33.2979C243.783 33.1274 243.434 32.8828 243.175 32.5639C242.916 32.2451 242.779 31.8615 242.763 31.4133Z" fill="black"/>
<path d="M250.041 36.1342V26.1336H251.727V27.3363H251.826C251.915 27.1595 252.039 26.9717 252.2 26.7728C252.361 26.5708 252.579 26.3988 252.854 26.2567C253.129 26.1115 253.479 26.0389 253.905 26.0389C254.467 26.0389 254.974 26.1825 255.425 26.4698C255.88 26.7539 256.24 27.1753 256.505 27.7341C256.773 28.2897 256.907 28.9715 256.907 29.7797C256.907 30.5783 256.776 31.257 256.514 31.8158C256.252 32.3745 255.895 32.8007 255.444 33.0943C254.993 33.3878 254.481 33.5346 253.91 33.5346C253.493 33.5346 253.147 33.4652 252.873 33.3263C252.598 33.1874 252.377 33.0201 252.21 32.8244C252.046 32.6255 251.918 32.4377 251.826 32.2609H251.755V36.1342H250.041ZM251.722 29.7702C251.722 30.2405 251.788 30.6525 251.921 31.0061C252.057 31.3596 252.251 31.6358 252.504 31.8347C252.759 32.0304 253.069 32.1283 253.432 32.1283C253.81 32.1283 254.128 32.0273 254.383 31.8252C254.639 31.6201 254.832 31.3407 254.961 30.9871C255.094 30.6304 255.16 30.2248 255.16 29.7702C255.16 29.3188 255.095 28.9179 254.966 28.5675C254.836 28.2171 254.644 27.9424 254.388 27.7435C254.132 27.5447 253.814 27.4452 253.432 27.4452C253.065 27.4452 252.754 27.5415 252.499 27.7341C252.243 27.9266 252.049 28.1965 251.916 28.5438C251.787 28.891 251.722 29.2998 251.722 29.7702Z" fill="black"/>
<path d="M260.468 33.5536C260.007 33.5536 259.592 33.4715 259.223 33.3073C258.856 33.14 258.566 32.8938 258.351 32.5687C258.14 32.2435 258.034 31.8426 258.034 31.3659C258.034 30.9556 258.11 30.6162 258.261 30.3479C258.413 30.0795 258.62 29.8649 258.882 29.7039C259.144 29.5429 259.439 29.4214 259.767 29.3393C260.099 29.2541 260.441 29.1925 260.795 29.1546C261.221 29.1104 261.567 29.071 261.832 29.0362C262.097 28.9984 262.289 28.9415 262.409 28.8658C262.533 28.7869 262.594 28.6653 262.594 28.5012V28.4728C262.594 28.116 262.488 27.8398 262.277 27.6441C262.065 27.4484 261.761 27.3505 261.363 27.3505C260.943 27.3505 260.61 27.4421 260.364 27.6252C260.121 27.8083 259.957 28.0245 259.871 28.2739L258.271 28.0466C258.397 27.6046 258.606 27.2353 258.896 26.9386C259.186 26.6387 259.542 26.4145 259.961 26.2662C260.381 26.1147 260.845 26.0389 261.353 26.0389C261.704 26.0389 262.053 26.0799 262.4 26.162C262.747 26.2441 263.064 26.3798 263.352 26.5692C263.639 26.7555 263.869 27.0096 264.043 27.3316C264.22 27.6536 264.308 28.0561 264.308 28.539V33.4068H262.66V32.4077H262.604C262.499 32.6097 262.353 32.7991 262.163 32.9759C261.977 33.1495 261.742 33.29 261.458 33.3973C261.177 33.5015 260.847 33.5536 260.468 33.5536ZM260.913 32.294C261.257 32.294 261.556 32.2261 261.808 32.0904C262.061 31.9515 262.255 31.7684 262.39 31.5411C262.529 31.3138 262.599 31.066 262.599 30.7977V29.9407C262.545 29.9848 262.454 30.0259 262.324 30.0638C262.198 30.1016 262.056 30.1348 261.898 30.1632C261.74 30.1916 261.584 30.2169 261.429 30.239C261.275 30.2611 261.14 30.28 261.027 30.2958C260.771 30.3305 260.542 30.3873 260.34 30.4663C260.138 30.5452 259.979 30.6557 259.862 30.7977C259.745 30.9366 259.687 31.1165 259.687 31.3375C259.687 31.6532 259.802 31.8915 260.032 32.0525C260.263 32.2135 260.556 32.294 260.913 32.294Z" fill="black"/>
<path d="M271.861 23.444L272.457 24.5521C272.246 24.7351 272.009 24.8677 271.747 24.9498C271.485 25.0319 271.177 25.0855 270.824 25.1108C270.473 25.1329 270.057 25.1487 269.574 25.1582C269.031 25.1708 268.587 25.2734 268.243 25.4659C267.899 25.6585 267.635 25.9505 267.452 26.3419C267.269 26.7302 267.149 27.2258 267.092 27.8288H267.173C267.4 27.3837 267.719 27.0443 268.129 26.8107C268.54 26.5771 269.021 26.4603 269.574 26.4603C270.177 26.4603 270.709 26.5961 271.169 26.8675C271.633 27.1359 271.995 27.5257 272.254 28.0371C272.516 28.5485 272.647 29.1672 272.647 29.8933C272.647 30.6415 272.506 31.2902 272.225 31.8394C271.944 32.3856 271.545 32.807 271.027 33.1037C270.513 33.4005 269.902 33.5488 269.195 33.5488C268.491 33.5488 267.879 33.3957 267.358 33.0895C266.84 32.7802 266.439 32.324 266.155 31.7211C265.874 31.115 265.734 30.3684 265.734 29.4813V28.8279C265.734 27.1169 266.052 25.84 266.69 24.9972C267.328 24.1543 268.273 23.725 269.526 23.7092C269.899 23.7029 270.232 23.7013 270.525 23.7045C270.822 23.7076 271.081 23.6934 271.302 23.6618C271.523 23.6303 271.709 23.5577 271.861 23.444ZM269.204 32.1756C269.555 32.1756 269.858 32.0857 270.114 31.9057C270.369 31.7226 270.565 31.4638 270.701 31.1292C270.84 30.7946 270.909 30.3984 270.909 29.9407C270.909 29.4892 270.84 29.1057 270.701 28.79C270.562 28.4712 270.364 28.2281 270.109 28.0608C269.853 27.8935 269.548 27.8098 269.195 27.8098C268.93 27.8098 268.691 27.8572 268.48 27.9519C268.268 28.0466 268.088 28.1855 267.94 28.3686C267.792 28.5517 267.678 28.7742 267.599 29.0362C267.52 29.2982 267.478 29.5997 267.471 29.9407C267.471 30.6257 267.626 31.1702 267.935 31.5743C268.245 31.9752 268.668 32.1756 269.204 32.1756Z" fill="black"/>
<path d="M277.278 33.5488C276.568 33.5488 275.952 33.3926 275.431 33.0801C274.91 32.7675 274.506 32.3303 274.219 31.7684C273.935 31.2065 273.793 30.5499 273.793 29.7986C273.793 29.0473 273.935 28.3891 274.219 27.824C274.506 27.259 274.91 26.8202 275.431 26.5077C275.952 26.1952 276.568 26.0389 277.278 26.0389C277.988 26.0389 278.604 26.1952 279.124 26.5077C279.645 26.8202 280.048 27.259 280.332 27.824C280.619 28.3891 280.763 29.0473 280.763 29.7986C280.763 30.5499 280.619 31.2065 280.332 31.7684C280.048 32.3303 279.645 32.7675 279.124 33.0801C278.604 33.3926 277.988 33.5488 277.278 33.5488ZM277.287 32.1756C277.672 32.1756 277.994 32.0699 278.253 31.8584C278.512 31.6437 278.705 31.3565 278.831 30.9966C278.96 30.6367 279.025 30.2358 279.025 29.7939C279.025 29.3488 278.96 28.9463 278.831 28.5864C278.705 28.2234 278.512 27.9345 278.253 27.7199C277.994 27.5052 277.672 27.3979 277.287 27.3979C276.893 27.3979 276.564 27.5052 276.302 27.7199C276.043 27.9345 275.849 28.2234 275.72 28.5864C275.594 28.9463 275.531 29.3488 275.531 29.7939C275.531 30.2358 275.594 30.6367 275.72 30.9966C275.849 31.3565 276.043 31.6437 276.302 31.8584C276.564 32.0699 276.893 32.1756 277.287 32.1756Z" fill="black"/>
<path d="M281.416 27.5399V26.1336H287.78V27.5399H285.427V33.4068H283.77V27.5399H281.416Z" fill="black"/>
<path d="M294.921 26.1336V33.4068H293.273V26.1336H294.921ZM294.149 29.4198V30.8214C293.963 30.9035 293.751 30.9776 293.515 31.0439C293.281 31.1071 293.033 31.1576 292.771 31.1955C292.512 31.2333 292.253 31.2523 291.995 31.2523C291.022 31.2523 290.254 31.0345 289.689 30.5988C289.127 30.16 288.846 29.4766 288.846 28.5485V26.1241H290.484V28.5485C290.484 28.861 290.539 29.112 290.65 29.3014C290.76 29.4908 290.928 29.6297 291.152 29.7181C291.376 29.8033 291.657 29.8459 291.995 29.8459C292.373 29.8459 292.733 29.8081 293.074 29.7323C293.415 29.6565 293.773 29.5524 294.149 29.4198Z" fill="black"/>
<path d="M298.298 31.0866L301.21 26.1336H302.972V33.4068H301.315V28.4491L298.412 33.4068H296.646V26.1336H298.298V31.0866Z" fill="black"/>
<path d="M304.732 33.4068V26.1336H306.446V29.0694H307.071L309.259 26.1336H311.323L308.629 29.7039L311.352 33.4068H309.278L307.284 30.6651H306.446V33.4068H304.732Z" fill="black"/>
</svg>
